<svg width="896" height="422" viewBox="0 0 896 422" fill="none" xmlns="http://www.w3.org/2000/svg">
<g clip-path="url(#clip0_1_31)">
<path d="M732.681 238.834C721.336 241.228 709.99 234.045 707.602 222.672C706.408 218.482 707.005 214.292 708.199 210.701C707.602 210.701 707.602 210.701 707.005 210.701C689.091 214.891 677.745 232.848 681.925 250.806C686.105 268.763 704.019 280.136 721.933 276.545C739.847 272.355 751.192 254.397 747.012 236.44C746.415 234.644 745.818 232.25 745.221 230.454C742.236 234.644 738.056 237.637 732.681 238.834Z" fill="#E84A5F"/>
<path d="M880.173 61.6538L879.576 61.0552C873.604 55.0694 867.036 50.2808 859.871 44.8936C858.079 43.6964 856.288 42.4991 854.496 41.3021C853.899 40.7035 852.705 40.1049 852.108 39.5062L849.719 37.7106C848.525 37.1119 847.928 36.5133 846.733 35.9149L845.539 35.3163C844.942 35.3163 844.345 34.7177 844.345 34.7177L841.36 32.922L840.165 32.3234L838.971 31.7248C836.582 30.5275 833.597 29.3305 831.208 27.5346V26.9362C831.208 11.9716 819.265 0 804.337 0C794.783 0 786.423 4.78858 782.244 11.9716C781.647 11.9716 781.049 11.9716 780.452 11.9716C778.661 11.373 776.272 11.373 774.481 10.7744L771.495 10.1758C770.301 10.1758 769.704 10.1758 768.509 9.57716C760.15 8.97872 752.387 8.38011 744.624 8.38011C736.861 8.38011 728.502 8.97872 720.739 10.1758C712.976 11.373 705.213 12.5701 697.451 14.3659C689.688 16.1616 682.522 18.5559 674.76 20.9504C668.191 23.3446 662.22 25.7389 655.651 28.7318C651.471 25.1403 646.097 22.746 640.126 22.746C627.586 22.746 617.435 32.922 617.435 45.4921C617.435 47.2879 617.435 48.485 618.032 50.2808C616.838 51.4779 615.046 52.0765 613.852 53.2737C601.312 62.2524 589.967 72.4282 579.815 83.2028C569.664 93.9772 560.11 105.949 552.348 119.118C549.362 123.906 546.376 129.293 543.391 134.681C541.599 134.082 540.405 134.082 538.613 134.082C525.477 134.082 514.728 144.857 514.728 158.025C514.728 166.406 518.908 173.589 525.477 177.779C523.088 186.159 520.699 194.539 519.505 203.518C518.311 211.299 517.117 218.482 516.52 226.264V227.461V228.658V231.651C516.52 232.848 516.52 233.447 516.52 234.644V237.637V240.63C516.52 241.827 516.52 242.426 516.52 243.623C516.52 245.418 516.52 247.214 516.52 249.608C516.52 256.791 517.714 263.376 518.311 270.559C510.548 272.355 505.174 279.537 505.174 287.918C505.174 298.094 513.534 305.875 523.088 305.875C524.282 305.875 525.477 305.875 526.671 305.277C527.865 308.868 529.656 313.058 530.851 316.65C533.836 323.832 537.419 331.016 541.002 337.6C545.182 344.184 549.362 350.769 554.139 356.754C555.93 359.149 557.722 360.945 559.513 363.339C556.527 366.332 554.736 370.522 554.736 375.311C554.736 385.487 563.096 393.268 572.65 393.268C577.427 393.268 582.204 391.472 585.19 387.881C586.384 388.479 586.981 389.078 588.175 389.676C591.758 392.071 595.341 394.465 598.924 396.261C602.506 398.057 606.089 400.451 610.269 401.648C611.463 402.247 612.061 402.247 613.255 402.845L616.24 404.043L619.226 405.24C620.42 405.838 621.018 405.838 622.212 406.437C626.392 407.634 629.975 408.831 634.154 410.028C634.752 410.028 635.349 410.028 635.946 410.627C637.737 417.211 643.709 422 650.874 422C656.846 422 661.623 419.007 664.608 414.218C670.58 414.218 676.551 414.218 681.925 413.62C686.105 413.021 689.688 413.021 693.868 411.824C697.451 411.225 701.631 410.627 705.213 409.43C709.99 408.233 714.767 407.035 718.947 405.24C721.933 408.831 726.113 411.225 730.89 411.225C739.25 411.225 746.416 404.043 746.416 395.662C746.416 394.465 746.416 393.867 745.818 392.669C746.416 392.669 746.416 392.071 747.013 392.071C760.15 384.289 772.092 374.712 782.244 363.938C782.841 363.339 782.841 363.339 783.438 362.74C785.826 364.536 788.812 365.733 792.395 365.733C800.755 365.733 807.92 358.55 807.92 350.17C807.92 345.381 806.129 341.191 802.546 338.797C804.934 335.206 806.726 332.213 808.517 328.621C810.308 325.03 812.1 322.037 813.294 318.445C815.086 314.854 816.28 311.262 817.474 308.27C818.071 308.27 818.072 308.27 818.668 308.27C826.431 308.27 832.403 302.284 832.403 294.502C832.403 289.115 829.417 284.326 824.64 281.932V281.333L825.237 278.34C825.237 277.143 825.237 276.545 825.834 275.348C826.431 271.756 827.028 267.566 827.028 263.974C827.625 258.587 827.625 252.601 827.028 247.214C829.417 244.82 831.208 241.228 831.208 237.637C831.208 232.25 828.222 228.059 824.64 225.665C822.848 216.088 819.265 206.511 815.086 197.532C813.294 193.94 811.503 190.947 809.711 187.356C811.503 184.962 812.697 181.969 812.697 178.976C812.697 171.194 806.726 165.208 798.963 165.208C797.172 165.208 795.38 165.807 793.589 166.406C791.798 164.61 790.006 162.814 788.215 161.018L787.02 159.821L786.423 159.223L784.035 157.427L783.438 156.828L782.841 156.23L781.647 155.033L780.452 153.835C779.855 153.237 779.855 153.237 779.258 152.638C777.466 151.441 775.675 150.244 773.884 149.047C772.689 148.448 772.092 147.85 770.898 147.251L769.107 146.054C768.509 139.469 762.538 134.082 755.373 134.082C751.79 134.082 748.804 135.279 745.818 137.674C745.221 137.674 745.221 137.674 744.624 137.674C744.027 137.674 743.43 137.674 742.833 137.674H741.041H739.25H738.653H738.056L735.07 137.075H734.473H733.876H732.084C727.904 136.477 724.322 137.075 720.142 137.075C716.559 137.075 712.379 137.674 708.796 138.272C707.005 132.885 701.631 129.293 695.659 129.293C687.896 129.293 681.925 135.279 681.925 143.061C681.925 144.258 681.925 145.455 682.522 146.652C680.134 147.85 678.342 149.047 675.954 150.244C675.954 150.244 675.357 150.244 675.357 150.842L674.76 151.441L673.565 152.04C672.968 152.638 671.774 153.237 671.177 153.237L668.788 155.033C668.191 155.631 666.997 156.23 666.4 156.828C664.608 158.025 663.414 159.223 661.623 160.42L659.234 162.215C658.637 162.814 658.04 163.413 656.846 164.011C654.457 165.807 652.068 168.201 650.277 170.596C648.486 168.8 645.5 168.201 642.514 168.201C635.946 168.201 630.572 173.589 630.572 180.173C630.572 184.363 632.363 187.356 635.349 189.75C633.557 193.342 631.169 196.933 629.377 200.525L628.78 201.722C628.78 202.321 628.183 202.321 628.183 202.919L626.989 205.313V205.912V206.511L626.392 207.708C625.795 208.306 625.795 209.504 625.197 210.102C624.003 213.694 622.809 217.285 622.212 220.877L621.615 222.074C621.615 222.672 621.615 223.271 621.615 223.271V225.067C615.046 225.067 609.672 230.454 609.672 237.038C609.672 243.024 613.852 247.813 619.823 249.01V249.608C619.823 250.207 619.823 250.806 619.823 250.806V252.003L620.42 254.996L621.018 257.988V259.186C621.018 259.784 621.018 260.383 621.018 260.383L621.615 263.376C621.615 264.573 622.212 265.172 622.212 266.369C622.809 268.164 623.406 269.96 624.003 271.756C624.003 272.355 624.6 272.953 624.6 272.953L625.197 274.15L625.795 275.348C622.212 277.143 619.823 281.333 619.823 285.523C619.823 292.108 625.197 297.495 631.766 297.495C634.154 297.495 635.946 296.896 637.737 295.699L638.334 296.298L640.126 298.692C640.723 299.291 641.32 299.889 641.917 301.086L643.111 302.284C643.709 302.882 643.709 302.882 644.306 303.481L646.097 305.277C646.694 305.875 646.694 305.875 647.291 306.474C646.097 308.27 644.903 310.664 644.903 313.657C644.903 320.241 650.277 325.628 656.846 325.628C661.025 325.628 665.205 323.234 666.997 319.643L667.594 320.241C668.191 320.241 668.191 320.84 668.788 320.84L669.982 321.438C671.774 322.037 673.565 322.635 675.357 323.234H675.954C676.551 329.22 681.925 333.41 687.896 333.41C692.674 333.41 696.256 331.016 698.048 327.424H700.436H703.422H704.616H705.81H708.796C715.962 326.825 721.336 321.438 721.336 314.255C721.336 307.072 715.365 301.086 708.199 301.086H707.602C697.451 301.086 687.299 298.692 678.939 293.903C678.342 293.903 677.745 293.305 677.148 292.706L676.551 292.108H675.954C675.954 292.108 675.954 292.108 675.357 292.108L674.162 290.91H673.565C673.565 290.91 673.565 290.91 672.968 290.91L672.371 290.312L671.774 289.713H671.177C671.177 289.713 671.177 289.713 670.58 289.115L669.385 287.918H668.788C668.788 287.918 668.788 287.918 668.191 287.319L667.594 286.721L666.997 286.122L666.4 285.523L665.205 284.326L664.608 283.728L664.011 283.129L662.817 281.932L661.623 280.735L661.025 280.136L660.428 279.537L659.234 277.742C658.637 277.143 658.637 276.545 658.637 275.946C658.637 275.348 658.04 274.749 658.04 274.15C655.651 269.96 654.457 265.172 653.263 260.383C653.263 259.784 653.263 259.186 652.666 258.587V256.791C652.666 256.193 652.666 256.193 652.666 256.193V254.996V253.2C652.666 250.806 652.666 248.411 652.666 246.017V244.82V244.221V243.623V241.827C652.666 241.228 652.666 240.63 652.666 240.031C652.666 239.433 652.666 238.834 652.666 238.235L653.263 236.44V235.242V234.045L653.86 232.25C653.86 231.651 653.86 231.651 653.86 231.651V231.052C654.457 228.658 655.651 226.264 656.248 223.869C656.248 223.271 656.846 222.672 656.846 222.074L657.443 221.475C657.443 221.475 657.443 221.475 657.443 220.877V220.278L658.04 218.482C658.04 218.482 658.04 217.884 658.637 217.884L659.234 217.285C661.623 213.095 664.608 208.905 667.594 205.313C670.58 201.722 674.76 198.13 678.342 195.137C678.939 194.539 679.537 194.539 679.537 193.94L681.328 192.743C682.522 192.145 683.119 191.546 684.314 190.947C684.911 190.349 685.508 190.349 686.105 189.75L687.896 188.553C688.494 188.553 689.091 187.955 689.688 187.955L690.285 187.356H690.882C690.882 187.356 690.882 187.356 691.479 187.356C695.659 185.56 700.436 183.764 705.213 182.567C709.99 181.37 714.17 180.772 718.947 180.772C721.336 180.772 723.724 180.772 725.516 181.37H726.113C726.113 181.37 726.113 181.37 726.71 181.37H727.307L729.099 181.969H729.696C729.696 181.969 729.696 181.969 730.293 181.969H730.89H731.487H732.084C733.279 182.567 733.876 182.567 735.07 183.166C735.667 183.166 736.264 183.764 736.861 183.764C737.459 183.764 738.056 184.363 738.056 184.363C738.056 184.363 738.653 184.363 738.653 184.962L739.25 185.56L740.444 186.159C741.041 186.159 741.638 186.757 741.638 186.757L742.236 187.356C742.236 187.356 742.833 187.356 742.833 187.955C743.43 187.955 743.43 188.553 744.027 188.553C744.624 188.553 744.624 189.152 745.221 189.152C745.818 189.75 747.013 190.349 747.61 190.947L748.207 191.546L748.804 192.145L749.401 192.743C749.998 193.342 749.998 193.342 750.595 193.94L751.193 194.539C754.775 198.13 757.164 201.722 760.15 205.912C761.344 207.708 762.538 210.102 763.732 211.898C764.927 214.292 765.524 216.088 766.718 218.482C770.301 227.461 772.092 237.038 772.689 246.616C772.689 251.404 772.689 256.193 772.092 261.58C771.495 263.974 771.495 266.369 770.898 268.763C770.898 269.362 770.898 269.96 770.301 270.559L769.704 272.355L769.107 274.15C769.107 274.749 768.509 275.348 768.509 275.946C767.912 278.34 767.315 280.735 766.121 283.129C765.524 285.523 764.33 287.918 763.135 290.312C761.941 292.706 760.747 295.101 759.552 296.896C758.358 299.291 757.164 301.086 755.97 303.481C750.595 311.861 744.027 319.643 736.861 326.227C729.696 332.811 721.336 338.797 712.379 342.987C703.422 347.177 694.465 350.769 685.508 351.966C675.954 353.762 666.997 353.762 658.04 352.565C655.651 351.966 653.86 351.966 651.471 351.367C649.083 350.769 647.291 350.17 644.903 349.572C643.111 348.973 640.723 348.374 638.932 347.177C638.334 347.177 637.737 346.579 637.737 346.579L636.543 345.98L635.349 345.381C634.752 345.381 634.154 344.783 634.154 344.783C632.363 343.586 630.572 342.987 628.78 341.79C626.989 340.593 625.197 339.396 624.003 338.199C622.212 337.001 621.018 335.804 619.226 334.008C618.629 333.41 618.629 333.41 618.032 332.811L617.435 332.213L616.838 331.614C616.24 331.016 615.046 329.818 614.449 329.22C601.909 314.854 593.549 297.495 589.369 278.939C588.175 274.15 587.578 269.362 586.981 264.573C586.384 259.784 586.384 254.996 586.384 250.207C586.384 249.01 586.384 247.813 586.384 246.616C586.384 246.017 586.384 245.418 586.384 244.82V243.024V241.228C586.384 240.63 586.384 240.031 586.384 239.433V237.637V236.44V235.242C586.981 230.454 588.175 225.665 589.369 220.877C594.147 201.722 602.506 183.764 614.449 167.603C620.42 159.821 626.989 152.04 634.154 145.455C641.32 138.871 649.083 132.885 657.443 127.498C665.803 122.111 674.162 117.92 683.119 114.329C687.299 112.533 692.076 111.336 696.853 110.139C701.631 108.942 705.81 107.745 710.588 107.146C715.365 106.547 719.545 105.949 724.322 105.35C729.099 105.35 733.279 105.35 738.056 105.35C742.236 105.35 747.013 105.949 751.193 107.146C751.79 107.146 752.387 107.146 752.984 107.146L754.775 107.745C755.97 107.745 757.164 108.343 757.761 108.343C758.358 108.343 758.955 108.343 759.552 108.942L761.344 109.54L763.135 110.139C763.732 110.139 764.33 110.139 764.927 110.738C769.107 111.935 772.689 113.73 776.869 114.928C780.452 116.723 784.034 118.519 787.618 120.913L788.215 121.512L788.812 122.111L790.006 122.709C790.006 122.709 790.604 122.709 790.604 123.308L791.201 123.906L792.395 124.505L793.589 125.702C794.186 125.702 794.186 126.301 794.783 126.899C795.38 127.498 796.575 128.096 797.172 128.695C800.158 131.089 803.143 134.082 806.129 137.075C806.726 137.674 807.92 138.871 808.517 139.469C828.819 158.624 861.065 156.828 879.576 136.477C902.267 112.533 900.475 80.8085 880.173 61.6538Z" fill="#3DCDF9"/>
<path fill-rule="evenodd" clip-rule="evenodd" d="M30.4537 171.793H46.5763C51.3533 171.793 55.5333 170.596 59.7133 168.8C63.8929 167.004 66.8786 164.61 69.8643 161.018C72.8499 158.026 74.6416 154.434 76.4329 150.244C78.2243 146.054 78.8212 141.864 78.8212 137.674C78.8212 133.484 78.2243 129.293 76.4329 125.104C74.6416 120.913 72.2529 117.322 69.8643 114.329C66.8786 111.336 63.2959 108.343 59.7133 106.547C55.5333 104.752 51.3533 103.555 46.5763 103.555H3.5827V201.722H30.4537V171.793ZM30.4537 126.899H44.1876C45.979 126.899 47.7706 127.498 48.9646 129.293C50.7563 130.491 51.3533 133.484 51.3533 137.674C51.3533 141.864 50.7563 144.258 48.9646 146.054C47.7706 147.85 45.979 148.448 44.1876 148.448H29.8567V126.899H30.4537Z" fill="#222221"/>
<path d="M95.5411 187.955C99.1238 192.145 103.901 195.736 109.275 198.729C114.649 201.123 121.815 202.919 129.577 202.919C137.34 202.919 143.909 201.722 149.283 199.328C154.657 196.933 159.434 193.342 163.017 189.152C166.6 184.962 169.585 179.575 171.377 173.589C173.168 167.603 173.765 161.018 173.765 154.434V103.555H146.894V153.835C146.894 156.828 146.297 160.42 145.7 162.814C145.103 165.807 143.909 168.201 142.714 170.596C141.52 172.99 139.729 174.786 137.34 175.983C134.952 177.18 132.563 177.779 129.577 177.779C126.592 177.779 123.606 177.18 121.815 175.983C119.426 174.786 117.635 172.99 116.441 170.596C115.246 168.201 114.052 165.807 113.455 162.814C112.858 159.821 112.261 156.828 112.261 153.237V103.555H85.3898V153.835C85.3898 160.42 85.9868 166.406 87.7781 172.391C88.9725 178.377 91.9581 183.764 95.5411 187.955Z" fill="#222221"/>
<path d="M213.176 103.555H186.305V201.722H257.364V178.377H213.176V103.555Z" fill="#222221"/>
<path fill-rule="evenodd" clip-rule="evenodd" d="M330.214 114.329C327.229 111.336 323.646 108.343 320.063 106.547C315.883 104.752 311.703 103.555 306.926 103.555H264.53V201.722H291.401V171.793H307.523C312.3 171.793 316.48 170.596 320.66 168.8C324.84 167.004 327.826 164.61 330.811 161.018C333.797 158.026 335.588 154.434 337.38 150.244C339.171 146.054 339.768 141.864 339.768 137.674C339.768 133.484 339.171 129.293 337.38 125.104C334.991 120.913 333.2 117.322 330.214 114.329ZM309.912 146.054C308.717 147.85 306.926 148.448 305.135 148.448H290.803V127.498H304.538C306.329 127.498 308.12 128.096 309.315 129.892C311.106 131.089 311.703 134.082 311.703 138.272C312.3 141.265 311.106 144.258 309.912 146.054Z" fill="#222221"/>
<path fill-rule="evenodd" clip-rule="evenodd" d="M437.698 134.681C435.907 129.293 432.921 125.103 429.338 120.913L439.489 110.139L430.532 101.759L419.784 112.533C417.395 110.738 414.41 108.942 411.424 107.745C405.453 104.752 398.884 103.554 391.122 103.554C383.956 103.554 377.387 104.752 370.819 107.745C364.848 110.738 359.473 114.329 354.696 118.519C350.516 123.308 346.934 128.096 344.545 134.082C342.157 140.068 340.962 146.054 340.962 152.638C340.962 159.222 342.157 165.208 344.545 171.194C346.337 175.983 348.725 180.173 351.711 183.764L343.351 192.743L352.308 201.123L360.668 192.743C363.653 195.137 366.639 196.933 370.222 198.729C376.193 201.722 382.762 202.919 390.524 202.919C397.69 202.919 404.258 201.722 410.827 198.729C416.798 195.736 422.172 192.144 426.352 187.955C430.532 183.166 434.115 178.377 436.504 172.391C438.892 166.406 440.086 160.42 440.086 153.835C441.281 146.652 440.086 140.667 437.698 134.681ZM370.819 162.215C369.625 159.222 369.625 155.631 369.625 152.638C369.625 149.645 370.222 146.054 370.819 143.061C371.416 140.068 373.208 137.075 374.999 134.681C376.79 132.286 379.179 130.491 382.165 128.695C385.15 127.498 388.136 126.3 392.316 126.3C395.899 126.3 399.481 126.899 402.467 128.695C403.064 129.293 403.661 129.293 404.258 129.892L372.013 164.011C370.819 163.413 370.819 162.814 370.819 162.215ZM412.618 162.215C412.021 165.208 410.23 168.201 408.438 170.596C406.647 172.99 404.258 174.786 401.273 176.581C398.287 178.377 395.301 178.976 391.122 178.976C386.942 178.976 383.956 178.377 380.97 176.581C379.776 175.983 378.582 175.384 377.985 174.786L410.827 140.068C411.424 141.265 411.424 141.864 412.021 143.061C413.215 146.054 413.215 149.645 413.215 152.638C414.41 155.631 413.813 159.222 412.618 162.215Z" fill="#222221"/>
<path d="M19.1079 261.58C19.7053 259.784 20.8996 257.39 22.0936 256.193C23.2879 254.397 25.0793 253.2 26.871 252.003C28.6623 250.806 31.0506 250.806 33.4393 250.806C34.6336 250.806 35.8279 250.806 37.6193 251.404C38.8136 251.404 40.0076 252.003 41.2019 252.601C42.3963 253.2 43.5906 254.397 44.7849 254.996C45.9789 256.193 46.5763 257.39 47.1732 259.186L61.5046 249.608C59.1159 245.418 55.5332 241.228 51.3532 238.834C46.5763 235.841 41.2019 234.644 34.6336 234.644C29.2593 234.644 24.4823 235.242 20.3023 237.038C16.1223 238.834 12.5396 241.228 9.55397 244.221C6.56831 247.214 4.17964 250.806 2.38831 254.996C0.596987 259.186 0 262.777 0 266.967C0 271.157 0.596987 275.348 2.38831 279.537C4.17964 283.728 5.97132 287.319 8.95699 290.911C11.9426 294.502 15.5253 296.896 19.7053 299.291C23.8853 301.086 28.0649 302.284 33.4393 302.284C36.4249 302.284 39.4106 302.284 42.3963 301.685C45.3819 301.086 48.3676 299.889 50.7563 298.692C53.1446 297.495 55.5332 295.699 57.9216 293.903C59.7132 292.108 61.5046 289.713 62.6989 287.319L47.7706 277.742C47.1732 279.537 46.5763 280.735 45.3819 281.333C44.1876 282.53 42.9932 283.129 41.7993 283.728C40.6049 284.326 39.4106 284.925 38.2163 284.925C37.0219 284.925 35.8279 285.523 34.6336 285.523C32.2449 285.523 29.8566 284.925 28.0649 283.728C26.2736 282.53 24.4823 281.333 23.2879 279.537C22.0936 277.742 20.8996 275.946 20.3023 273.552C19.7053 271.157 19.1079 269.362 19.7053 266.967C18.511 265.77 18.511 263.974 19.1079 261.58Z" fill="#222221"/>
<path fill-rule="evenodd" clip-rule="evenodd" d="M121.218 247.214L127.189 240.031L120.024 234.644L114.649 241.827C113.455 241.228 112.261 240.031 111.067 239.433C106.887 237.637 102.11 236.44 97.3326 236.44C92.5556 236.44 87.7782 237.038 83.5986 238.834C79.4186 240.63 75.8356 243.024 72.8499 246.017C69.8643 249.01 67.476 252.601 65.6846 256.791C63.893 260.981 62.699 265.172 62.699 269.362C62.699 273.552 63.296 277.742 65.0873 281.932C66.8786 286.122 68.6703 289.713 71.656 292.706C72.2529 293.305 72.8499 293.903 73.4473 294.502L69.2673 299.889L76.4329 305.277L81.2099 299.291C81.8069 299.291 82.4043 299.889 83.0013 299.889C87.1813 301.685 91.9582 302.882 96.7352 302.882C101.513 302.882 106.29 302.284 110.47 300.488C114.649 298.692 118.232 296.298 121.218 293.305C124.204 290.312 126.592 286.721 128.384 282.53C130.175 278.34 131.369 274.15 131.369 269.96C131.369 265.77 130.772 261.58 128.981 257.39C125.995 253.799 124.204 250.207 121.218 247.214ZM81.2099 275.946C80.6129 273.552 80.6129 271.756 80.6129 269.362C80.6129 266.967 81.2099 265.172 81.8069 262.777C82.4043 260.383 83.5986 258.587 84.7926 257.39C85.9869 255.594 87.7782 254.397 89.5699 253.2C91.3613 252.003 93.7496 252.003 96.1382 252.003C98.5269 252.003 100.915 252.601 102.707 253.799C103.304 253.799 103.304 254.397 103.901 254.397L83.0013 280.735C82.4043 278.939 81.8069 277.742 81.2099 275.946ZM111.067 269.96C111.067 272.355 110.47 274.15 109.872 276.545C109.275 278.939 108.081 280.735 106.887 281.932C105.692 283.728 103.901 284.925 102.11 286.122C100.318 287.319 97.9296 287.319 94.9439 287.319C93.1526 287.319 91.3613 286.721 89.5699 286.122L109.275 260.981C109.275 261.58 109.872 262.179 109.872 262.777C111.067 265.172 111.067 267.566 111.067 269.96Z" fill="#222221"/>
<path d="M176.751 272.355L151.074 237.637L136.743 237.038L134.952 304.079L153.463 304.678L154.06 271.756L179.737 305.277H194.665L195.859 238.235H177.945L176.751 272.355Z" fill="#222221"/>
<path d="M223.951 348C223.951 341.777 224.414 336.216 225.341 331.318C226.4 326.419 228.055 321.983 230.306 318.011C232.689 313.907 235.801 310.134 239.64 306.691C243.612 303.116 248.577 299.74 254.535 296.563C260.758 293.253 265.922 290.472 270.026 288.221C274.263 285.838 277.639 283.852 280.155 282.263C282.67 280.675 284.392 279.152 285.318 277.696C286.378 276.107 286.907 274.386 286.907 272.532C286.907 270.016 286.311 267.832 285.12 265.978C283.928 264.125 282.207 262.734 279.956 261.808C277.705 260.748 274.925 260.219 271.615 260.219C268.967 260.219 266.451 260.55 264.068 261.212C261.685 261.874 259.368 262.867 257.117 264.191C254.999 265.515 252.947 267.104 250.961 268.957C248.975 270.678 246.989 272.664 245.003 274.915L224.944 251.48C227.195 249.23 230.041 246.979 233.484 244.728C237.059 242.477 241.097 240.491 245.598 238.77C250.1 236.916 254.999 235.46 260.295 234.401C265.723 233.209 271.35 232.613 277.176 232.613C286.709 232.613 294.719 234.07 301.206 236.983C307.826 239.763 312.858 243.735 316.3 248.899C319.742 254.062 321.464 260.153 321.464 267.17C321.464 271.671 320.735 275.643 319.279 279.086C317.955 282.396 316.168 285.375 313.917 288.023C311.666 290.671 309.084 293.054 306.171 295.172C303.391 297.291 300.611 299.211 297.83 300.932C294.653 302.521 291.674 304.109 288.893 305.698C286.113 307.155 283.531 308.611 281.148 310.067C278.765 311.391 276.514 312.848 274.395 314.437C272.409 315.893 270.49 317.548 268.636 319.402H323.648V348H223.951Z" fill="#E84A5F"/>
<path d="M410.253 300.932C415.814 301.859 420.647 304.043 424.751 307.486C428.988 310.796 432.232 314.966 434.483 319.997C436.866 324.896 438.057 330.457 438.057 336.68C438.057 344.889 435.873 352.038 431.504 358.129C427.134 364.219 420.912 368.919 412.835 372.229C404.759 375.539 395.226 377.194 384.237 377.194C374.174 377.194 365.171 375.672 357.227 372.626C349.416 369.714 342.663 365.344 336.97 359.519L354.05 336.878C357.624 340.453 361.729 343.234 366.363 345.22C370.997 347.206 376.425 348.199 382.648 348.199C390.195 348.199 395.822 346.875 399.529 344.227C403.236 341.446 405.09 337.276 405.09 331.715C405.09 325.757 402.839 321.255 398.337 318.21C393.968 315.165 387.017 313.642 377.484 313.642H371.526V290.803H378.08C385.362 290.803 391.122 289.281 395.358 286.235C399.595 283.058 401.714 279.02 401.714 274.121C401.714 271.208 400.985 268.759 399.529 266.773C398.205 264.787 396.285 263.33 393.77 262.403C391.386 261.344 388.474 260.815 385.031 260.815C379.735 260.815 374.836 262.072 370.335 264.588C365.833 267.104 362.06 270.811 359.015 275.71L338.956 252.672C341.869 248.832 345.841 245.522 350.872 242.742C356.036 239.829 361.861 237.578 368.349 235.99C374.836 234.401 381.589 233.606 388.606 233.606C398.006 233.606 406.215 235.063 413.232 237.976C420.382 240.888 425.877 244.993 429.716 250.289C433.688 255.452 435.674 261.609 435.674 268.759C435.674 273.922 434.615 278.821 432.497 283.455C430.378 287.957 427.399 291.796 423.56 294.974C419.72 298.019 415.285 300.005 410.253 300.932Z" fill="#E84A5F"/>
</g>
<defs>
<clipPath id="clip0_1_31">
<rect width="896" height="422" fill="white"/>
</clipPath>
</defs>
</svg>
